# xmcd
#
# Track frame offsets:
#	150
#	12655
#	25865
#	43397
#	58972
#	71205
#	83785
#	96312
#	107927
#	119177
#	124880
#	131980
#	146227
#	163615
#	172960
#	185242
#	196410
#	216835
#	233997
#	254267
#	264297
#
# Disc length: 3689 seconds
#
# Revision: 0
# Processed by: cddbd v1.5.2PL0 Copyright (c) Steve Scherf et al.
# Submitted via: audiograbber 1.83.01
#
DISCID=570e6715
DTITLE=Buffalo Springfield - Box Set [CD 2) - 1966-1967
DYEAR=2001
DGENRE=Country Rock
TTITLE0=Down Down Down [remix]
TTITLE1=Kahuna Sunset [mono]
TTITLE2=Buffalo Stomp [raga - mono]
TTITLE3=Baby Don't Scold Me [mono]
TTITLE4=For What It's Worth [mono]
TTITLE5=Mr. Soul [mono]
TTITLE6=We'll See [mono]
TTITLE7=My Kind Of Love [mono]
TTITLE8=Pretty Girl Why [mono]
TTITLE9=Words I Must Say [demo - mono]
TTITLE10=Nobody's Fool [demo - mono]
TTITLE11=So You've Got A Lover [demo - mono]
TTITLE12=My Angel [demo - mono]
TTITLE13=No Sun Today [mono]
TTITLE14=Everydays
TTITLE15=Down To The Wire [mono]
TTITLE16=Bluebird
TTITLE17=Expecting To Fly
TTITLE18=Hung Upside Down [demo - mono]
TTITLE19=A Child's Claim To Fame
TTITLE20=Rock and Roll Woman
EXTD=
EXTT0=
EXTT1=
EXTT2=
EXTT3=
EXTT4=
EXTT5=
EXTT6=
EXTT7=
EXTT8=
EXTT9=
EXTT10=
EXTT11=
EXTT12=
EXTT13=
EXTT14=
EXTT15=
EXTT16=
EXTT17=
EXTT18=
EXTT19=
EXTT20=
PLAYORDER=
